<svg width="61" height="61" viewBox="0 0 61 61" fill="none" xmlns="http://www.w3.org/2000/svg">
<path d="M54.5 41V18.5L35.75 7.95349M25.25 7.95349L6.5 18.5V41M11 48.032L30.5 59L42.5 52.25L50 48.0305M30.5 21.5L35 24.125L39.5 26.75V37.25L35 39.875L30.5 42.5L26 39.875L21.5 37.25V26.75L26 24.125L30.5 21.5ZM30.5 21.5V11M39.5 36.5L50 42.5M21.5 36.5L11 42.5" stroke="#7569FF" stroke-width="3" stroke-linecap="round" stroke-linejoin="round"/>
<path d="M30.5 11C32.9853 11 35 8.98528 35 6.5C35 4.01472 32.9853 2 30.5 2C28.0147 2 26 4.01472 26 6.5C26 8.98528 28.0147 11 30.5 11Z" stroke="#7569FF" stroke-width="3" stroke-linecap="round" stroke-linejoin="round"/>
<path d="M6.5 50C8.98528 50 11 47.9853 11 45.5C11 43.0147 8.98528 41 6.5 41C4.01472 41 2 43.0147 2 45.5C2 47.9853 4.01472 50 6.5 50Z" stroke="#7569FF" stroke-width="3" stroke-linecap="round" stroke-linejoin="round"/>
<path d="M54.5 50C56.9853 50 59 47.9853 59 45.5C59 43.0147 56.9853 41 54.5 41C52.0147 41 50 43.0147 50 45.5C50 47.9853 52.0147 50 54.5 50Z" stroke="#7569FF" stroke-width="3" stroke-linecap="round" stroke-linejoin="round"/>
</svg>
