<svg width="57" height="57" viewBox="0 0 57 57" fill="none" xmlns="http://www.w3.org/2000/svg">
<path d="M35.625 2.57931H57V57H0V0L35.625 36.2805V2.57931ZM3.5625 53.372H47.3423L3.5625 8.78667V53.372ZM48.8452 49.7439L52.4077 53.372H53.4375V6.20736H39.1875V9.83541H46.3125V13.4635H39.1875V17.0915H46.3125V20.7195H39.1875V24.3476H49.875V27.9756H39.1875V31.6037H46.3125V35.2317H39.1875V38.8598H46.3125V42.4878H41.7202L45.2827 46.1159H49.875V49.7439H48.8452ZM10.6875 29.0244L27.4702 46.1159H10.6875V29.0244ZM14.25 37.811V42.4878H18.8423L14.25 37.811Z" fill="#7569FF"/>
</svg>
