<svg width="57" height="57" viewBox="0 0 57 57" fill="none" xmlns="http://www.w3.org/2000/svg">
<path d="M46.3125 3.5625H53.4375V10.6875H46.3125V3.5625ZM46.3125 14.25H53.4375V21.375H46.3125V14.25ZM35.625 3.5625H42.75V10.6875H35.625V3.5625ZM35.625 14.25H42.75V21.375H35.625V14.25Z" fill="#7569FF"/>
<path d="M49.875 28.5V39.1875H7.125V10.6875H28.5V7.125H7.125C6.18017 7.125 5.27403 7.50033 4.60593 8.16843C3.93783 8.83653 3.5625 9.74267 3.5625 10.6875V39.1875C3.5625 40.1323 3.93783 41.0385 4.60593 41.7066C5.27403 42.3747 6.18017 42.75 7.125 42.75H21.375V49.875H14.25V53.4375H42.75V49.875H35.625V42.75H49.875C50.8198 42.75 51.726 42.3747 52.3941 41.7066C53.0622 41.0385 53.4375 40.1323 53.4375 39.1875V28.5H49.875ZM32.0625 49.875H24.9375V42.75H32.0625V49.875Z" fill="#7569FF"/>
</svg>
